<?xml version="1.0" encoding="UTF-8" standalone="no"?>
<svg
   xmlns:dc="http://purl.org/dc/elements/1.1/"
   xmlns:cc="http://creativecommons.org/ns#"
   xmlns:rdf="http://www.w3.org/1999/02/22-rdf-syntax-ns#"
   xmlns:svg="http://www.w3.org/2000/svg"
   xmlns="http://www.w3.org/2000/svg"
   xmlns:sodipodi="http://sodipodi.sourceforge.net/DTD/sodipodi-0.dtd"
   xmlns:inkscape="http://www.inkscape.org/namespaces/inkscape"
   id="svg"
   version="1.1"
   width="423.43463"
   height="419.09924"
   viewBox="0 0 423.43463 419.09924"
   sodipodi:docname="nxm.svg"
   inkscape:version="1.0rc1 (09960d6, 2020-04-09)">
  <metadata
     id="metadata853">
    <rdf:RDF>
      <cc:Work
         rdf:about="">
        <dc:format>image/svg+xml</dc:format>
        <dc:type
           rdf:resource="http://purl.org/dc/dcmitype/StillImage" />
        <dc:title />
      </cc:Work>
    </rdf:RDF>
  </metadata>
  <defs
     id="defs851" />
  <sodipodi:namedview
     inkscape:document-rotation="0"
     pagecolor="#ffffff"
     bordercolor="#666666"
     borderopacity="1"
     objecttolerance="10"
     gridtolerance="10"
     guidetolerance="10"
     inkscape:pageopacity="0"
     inkscape:pageshadow="2"
     inkscape:window-width="1680"
     inkscape:window-height="926"
     id="namedview849"
     showgrid="false"
     lock-margins="true"
     fit-margin-top="0"
     fit-margin-left="0"
     fit-margin-right="0"
     fit-margin-bottom="0"
     inkscape:zoom="1.55"
     inkscape:cx="96.869263"
     inkscape:cy="210.80354"
     inkscape:window-x="0"
     inkscape:window-y="23"
     inkscape:window-maximized="1"
     inkscape:current-layer="svg" />
  <g
     transform="translate(0.30000365,0.39999694)"
     id="g22659">
    <ellipse
       style="fill:#000000;fill-opacity:1;stroke:#000000;stroke-width:0.755906;stroke-linecap:round;stroke-linejoin:round"
       id="path22637"
       cx="211.71269"
       cy="208.8098"
       rx="210.96774"
       ry="209.35484" />
    <path
       sodipodi:nodetypes="cccccsccsccscscccccccccccccccccccccccccccccsccscccssccccc"
       id="path1"
       d="m 220.39448,39.12718 c 32.231,6.114 51.918,39.189 41.772,70.179 -2.572,7.85901 -7.064,14.97101 -14.524,23.00001 -14.413,15.511 -13.297,34.931 2.608,45.387 11.98,7.877 24.873,5.757 37.336,-6.138 13.726,-13.101 24.538,-17.849 40.642,-17.849 56.867,0 74.894,77.065 23.976,102.492 -21.983,10.978 -44.87,6.545 -64.824,-12.554 -12.857,-12.305 -28.828,-12.861 -40.361,-1.404 -12.446,12.364 -11.43,27.737 2.847,43.073 12.665,13.605 17.869,26.223 17.235,41.793 -1.94,47.662 -59.752,69.91 -92.899,35.751 -20.833,-21.469 -20.572,-53.128 0.626,-76.151 9.042,-9.82 11.329,-14.583 11.329,-23.6 0,-16.222 -12.97,-28.559 -29.11,-27.691 -8.526,0.458 -12.886,2.718 -21.801,11.301 -12.951,12.469 -24.219,17.384 -39.866,17.388 -45.961,0.015 -70.833,-53.517 -41.325,-88.946 20.447,-24.551 55.664,-25.842 80.234,-2.941 7.369,6.868 11.501,9.35 17.468,10.491 22.96,4.393 40.685,-18.714 30.437,-39.681 -1.588,-3.248 -2.458,-4.373 -7.432,-9.6 -3.098,-3.256 -6.437,-6.989 -7.42,-8.296 -19.631,-26.11501 -11.966,-63.20501 16.476,-79.72201 10.745,-6.24 24.418,-8.589 36.576,-6.282 m -15.716,22.017 c -20.864,3.77 -32.092,27.118 -22.217,46.198 11.907,23.00601 45.586,22.39201 56.808,-1.036 11.302,-23.594 -8.789,-49.824 -34.591,-45.162 m 11.732,10.431 c 10.945,2.996 17.969,14.726 15.385,25.69 -4.98,21.12601 -34.211,22.67501 -41.641,2.205997 -5.842,-16.094997 9.567,-32.465997 26.256,-27.895997 m 107.4,104.39001 c -30.257,4.872 -37.707,44.638 -11.16,59.57 23.61,13.281 52.176,-7.621 46.784,-34.231 -3.287,-16.221 -19.709,-27.902 -35.624,-25.339 m -233.468,2.523 c -30.661,5.624 -36.713,46.665 -8.883,60.235 24.138,11.771 51.178,-10.022 44.935,-36.217 -3.766,-15.803 -20.406,-26.888 -36.052,-24.018 m 245.068,8.786 c 12.921,4.601 18.445,20.492 11.075,31.861 -10.067,15.527 -32.85,12.683 -38.884,-4.855 -5.69,-16.538 11.185,-32.925 27.809,-27.006 m -234.458,1.866 c 15.977,4.119 21.475,24.421 9.781,36.115 -11.299,11.299 -30.278,6.969 -35.77,-8.16 -5.803,-15.987 9.319,-32.253 25.989,-27.955 m 105.858,104.747 c -29.018,6.216 -35.101,44.77 -9.348,59.255 21.07,11.851 47.348,-3.598 47.348,-27.836 0,-19.948 -18.838,-35.524 -38,-31.419 m 12.027,10.457 c 16.282,4.782 21.169,25.41 8.712,36.77 -12.645,11.532 -32.487,4.784 -35.83,-12.186 -2.994,-15.193 12.2,-28.966 27.118,-24.584"
       stroke="none"
       fill="#2c2c2c"
       fill-rule="evenodd"
       inkscape:connector-curvature="0"
       style="fill:#ffffff;fill-opacity:1" />
  </g>
</svg>
